0
SECTION
2
HEADER
9
$INSUNITS
70
4
9
$ACADVER
1
AC1014
9
$HANDSEED
5
FFFF
0
ENDSEC
0
SECTION
2
TABLES
0
TABLE
2
VPORT
5
8
100
AcDbSymbolTable
0
ENDTAB
0
TABLE
2
LTYPE
5
5
100
AcDbSymbolTable
0
LTYPE
5
14
100
AcDbSymbolTableRecord
100
AcDbLinetypeTableRecord
2
BYBLOCK
70
0
0
LTYPE
5
15
100
AcDbSymbolTableRecord
100
AcDbLinetypeTableRecord
2
BYLAYER
70
0
0
LTYPE
5
16
100
AcDbSymbolTableRecord
100
AcDbLinetypeTableRecord
2
DASHED
70
0
3
Dashed __ __ __ __ __ __ __ __ __ __ __ __ __ _
72
65
73
2
40
0.75
49
0.5
74
0
49
-0.25
74
0
0
ENDTAB
0
TABLE
2
LAYER
5
2
100
AcDbSymbolTable
70
3
0
LAYER
5
50
100
AcDbSymbolTableRecord
100
AcDbLayerTableRecord
2
1
70
0
62
7
6
DASHED
0
LAYER
5
51
100
AcDbSymbolTableRecord
100
AcDbLayerTableRecord
2
0
70
0
62
7
6
CONTINUOUS
0
ENDTAB
0
TABLE
2
STYLE
5
3
100
AcDbSymbolTable
70
1
0
STYLE
5
11
100
AcDbSymbolTableRecord
100
AcDbTextStyleTableRecord
2
STANDARD
70
0
0
ENDTAB
0
TABLE
2
VIEW
5
6
100
AcDbSymbolTable
70
0
0
ENDTAB
0
TABLE
2
UCS
5
7
100
AcDbSymbolTable
70
0
0
ENDTAB
0
TABLE
2
APPID
5
9
100
AcDbSymbolTable
70
2
0
APPID
5
12
100
AcDbSymbolTableRecord
100
AcDbRegAppTableRecord
2
ACAD
70
0
0
ENDTAB
0
TABLE
2
DIMSTYLE
5
A
100
AcDbSymbolTable
70
1
0
ENDTAB
0
TABLE
2
BLOCK_RECORD
5
1
100
AcDbSymbolTable
70
1
0
BLOCK_RECORD
5
1F
100
AcDbSymbolTableRecord
100
AcDbBlockTableRecord
2
*MODEL_SPACE
0
BLOCK_RECORD
5
1B
100
AcDbSymbolTableRecord
100
AcDbBlockTableRecord
2
*PAPER_SPACE
0
ENDTAB
0
ENDSEC
0
SECTION
2
BLOCKS
0
BLOCK
5
20
100
AcDbEntity
100
AcDbBlockBegin
2
*MODEL_SPACE
0
ENDBLK
5
21
100
AcDbEntity
100
AcDbBlockEnd
0
BLOCK
5
1C
100
AcDbEntity
100
AcDbBlockBegin
2
*PAPER_SPACE
0
ENDBLK
5
1D
100
AcDbEntity
100
AcDbBlockEnd
0
ENDSEC
0
SECTION
2
ENTITIES
0
POINT
5
100
100
AcDbEntity
8
0
100
AcDbPoint
10
0
20
0
30
0
0
POINT
5
101
100
AcDbEntity
8
0
100
AcDbPoint
10
68.650000000000006
20
0
30
0
0
POINT
5
102
100
AcDbEntity
8
0
100
AcDbPoint
10
58.850000000000009
20
3.6739403974420589e-16
30
0
0
POINT
5
103
100
AcDbEntity
8
0
100
AcDbPoint
10
78.450000000000003
20
-3.6739403974420604e-16
30
0
0
POINT
5
104
100
AcDbEntity
8
0
100
AcDbPoint
10
56.179633765213886
20
56.179633765328532
30
0
0
POINT
5
105
100
AcDbEntity
8
0
100
AcDbPoint
10
31.536962440887844
20
31.536962440952202
30
0
0
POINT
5
106
100
AcDbEntity
8
0
100
AcDbPoint
10
42.320340859981172
20
42.320340848048573
30
0
0
LWPOLYLINE
5
107
100
AcDbEntity
8
0
100
AcDbPolyline
90
8
70
1
43
0.0
10
-52.592299816608154
20
63.924999999999997
10
47.907723803161495
20
63.924999999999969
42
-0.21319452864419175
10
63.548022285344018
20
56.938602798289907
42
-0.38246420959437544
10
63.548022285343947
20
-56.938602798289971
42
-0.21319452864419117
10
47.907723803161446
20
-63.925000000000018
10
-52.592299816608126
20
-63.924999999999997
42
-0.1956628932465663
10
-59.574350904110048
20
-61.083977763026894
42
-0.42156143131000207
10
-59.574350904110062
20
61.083977763026873
42
-0.1956628932465648
0
CIRCLE
5
108
100
AcDbEntity
8
0
100
AcDbCircle
10
0
20
0
30
0
40
44.600000000000009
210
0
220
0
230
1
0
LWPOLYLINE
5
109
100
AcDbEntity
8
0
100
AcDbPolyline
90
4
70
1
43
0.0
10
64.850000073539334
20
6.0000000000000009
10
72.450000000000017
20
6.0000000000000009
42
-0.99999999999999989
10
72.450000000000017
20
-6.0000000000000009
10
64.850000015867636
20
-6.0000000000000009
42
-1.0000000074505806
0
LINE
5
110
100
AcDbEntity
8
1
100
AcDbLine
10
64.850000000000009
20
0
30
0
11
72.450000000000017
21
0
31
0
0
LINE
5
111
100
AcDbEntity
8
1
100
AcDbLine
10
1.75
20
0
30
0
11
22.5
21
0
31
0
0
LINE
5
112
100
AcDbEntity
8
0
100
AcDbLine
10
0
20
2.5
30
0
11
0
21
20
31
0
0
LWPOLYLINE
5
113
100
AcDbEntity
8
0
100
AcDbPolyline
90
4
70
1
43
0.0
10
-64.850000073539334
20
6.0000000000000009
10
-72.450000000000017
20
6.0000000000000009
42
0.99999999999999989
10
-72.450000000000017
20
-6.0000000000000009
10
-64.850000073539334
20
-6.0000000000000009
42
1.0000000074505806
0
LWPOLYLINE
5
114
100
AcDbEntity
8
0
100
AcDbPolyline
90
4
70
1
43
0.0
10
56.179633765222803
20
47.694352391089708
42
0.99999999999999989
10
47.694352390975574
20
56.179633765319601
10
42.3203409479136
20
50.805622322247181
42
1.0000000235608046
10
50.805622322160851
20
42.320340948017297
0
LINE
5
115
100
AcDbEntity
8
1
100
AcDbLine
10
46.562981541086671
20
46.562981541181671
30
0
11
51.936993078098936
21
51.936993078204893
31
0
0
LWPOLYLINE
5
116
100
AcDbEntity
8
0
100
AcDbPolyline
90
4
70
1
43
0.0
10
-50.805622322247203
20
42.3203409479136
10
-56.179633765320105
20
47.69435239097507
42
-0.99999999999999989
10
-47.694352391089723
20
56.179633765222803
10
-42.320340960036226
20
50.805622334179787
42
-1.0000000235608046
0
LWPOLYLINE
5
117
100
AcDbEntity
8
0
100
AcDbPolyline
90
4
70
1
43
0.0
10
-42.320340947913607
20
-50.805622322247174
10
-47.694352390975077
20
-56.179633765320077
42
-0.99999999999999989
10
-56.179633765222817
20
-47.694352391089694
10
-50.805622334179802
20
-42.320340960036205
42
-1.0000000235608046
0
LWPOLYLINE
5
118
100
AcDbEntity
8
0
100
AcDbPolyline
90
4
70
1
43
0.0
10
50.805622322247174
20
-42.320340947913607
10
56.179633765320077
20
-47.694352390975077
42
-0.99999999999999989
10
47.694352391089694
20
-56.179633765222817
10
42.320340960036205
20
-50.805622334179802
42
-1.0000000235608046
0
ENDSEC
0
SECTION
2
OBJECTS
0
DICTIONARY
5
C
100
AcDbDictionary
3
ACAD_GROUP
350
D
3
ACAD_MLINESTYLE
350
17
0
DICTIONARY
5
D
100
AcDbDictionary
0
DICTIONARY
5
1A
330
C
100
AcDbDictionary
0
DICTIONARY
5
17
100
AcDbDictionary
0
ENDSEC
0
EOF
